<svg id="Layer_1" enable-background="new 0 0 256 256" height="512" viewBox="0 0 256 256" width="512" xmlns="http://www.w3.org/2000/svg"><g><g><g><g><g><g><path d="m78.531 191.911h-24.967c-4.411 0-8-3.589-8-8v-78.629c0-2.206-1.794-4-4-4s-4 1.794-4 4v78.629c0 8.822 7.178 16 16 16h24.967c2.206 0 4-1.794 4-4s-1.795-4-4-4z" fill="#e0ebfc"/></g></g></g></g><g><g><g><g><path d="m53.564 196.911c-7.168 0-13-5.832-13-13v-78.629c0-.551.449-1 1-1s1 .449 1 1v78.629c0 6.065 4.935 11 11 11h24.967c.551 0 1 .449 1 1s-.449 1-1 1z" fill="#a4c9ff"/></g></g></g></g></g><g><g><g><g><path d="m72.429 13.739h-61.73c-1.657 0-3 1.343-3 3v90.057c0 .851.538 1.608 1.341 1.888l23.024 8.032h19l23.024-8.032c.803-.28 1.341-1.038 1.341-1.888v-90.057c0-1.657-1.344-3-3-3z" fill="#e0ebfc"/></g></g></g></g><g><g><g><g><path d="m216.699 215.027v-36.745c0-12.718-10.31-23.028-23.028-23.028h-92.112c-12.718 0-23.028 10.31-23.028 23.028v36.745c0 2.209 1.791 4 4 4h130.169c2.208 0 3.999-1.791 3.999-4z" fill="#6bdddd"/></g></g></g></g><g><g><g><g><path d="m170.596 155.253v-16.853h-46.008v16.853h-3.709v13.112c0 2.544 2.062 4.606 4.606 4.606h44.214c2.544 0 4.606-2.062 4.606-4.606v-13.112z" fill="#f9cfcf"/></g></g></g></g><g><g><g><g><path d="m212.699 221.027h-130.169c-3.309 0-6-2.691-6-6v-36.746c0-13.8 11.228-25.028 25.028-25.028h21.03v-14.853c0-1.104.896-2 2-2h46.008c1.104 0 2 .896 2 2v14.853h21.075c13.801 0 25.028 11.228 25.028 25.028v36.746c0 3.308-2.691 6-6 6zm-111.14-63.774c-11.595 0-21.028 9.433-21.028 21.028v36.746c0 1.103.897 2 2 2h130.169c1.103 0 2-.897 2-2v-36.746c0-11.595-9.433-21.028-21.028-21.028h-23.075c-1.104 0-2-.896-2-2v-14.853h-42.008v14.853c0 1.104-.896 2-2 2z" fill="#3762cc"/></g></g></g></g><g><g><g><g><path d="m205.801 76.688c0 32.135-26.051 58.186-58.186 58.186-32.135 0-58.186-26.051-58.186-58.186v-15.706c0-7.843 6.358-14.202 14.202-14.202h102.171v29.908z" fill="#4671c6"/></g></g></g></g><g><g><g><g><path d="m147.615 136.874c-33.187 0-60.186-27-60.186-60.186v-15.706c0-8.934 7.268-16.202 16.202-16.202h102.17c1.104 0 2 .896 2 2v29.907c0 33.188-27 60.187-60.186 60.187zm-43.985-88.093c-6.728 0-12.202 5.474-12.202 12.202v15.706c0 30.981 25.205 56.186 56.186 56.186s56.186-25.205 56.186-56.186v-27.908z" fill="#3762cc"/></g></g></g></g><g><g><g><g><path d="m197.172 84.148v-4.64c0-27.123-22.188-49.111-49.557-49.111-27.37 0-49.557 21.988-49.557 49.111v4.64c-8.605-.175-15.432 6.681-15.432 14.967 0 8.848 7.725 15.847 16.741 14.894 5.114 21.728 24.769 37.916 48.248 37.916 23.482 0 43.134-16.19 48.248-37.916 9.004.952 16.741-6.034 16.741-14.894.001-8.29-6.832-15.142-15.432-14.967z" fill="#f9cfcf"/></g></g></g></g><g><g><g><g><path d="m173.343 109.32c-3.459 0-6.264-2.804-6.264-6.264v-6.681c0-3.459 2.804-6.264 6.264-6.264 3.459 0 6.264 2.804 6.264 6.264v6.681c0 3.46-2.804 6.264-6.264 6.264z" fill="#3762cc"/></g></g></g></g><g><g><g><g><path d="m128.138 103.057c0 3.459-2.804 6.264-6.264 6.264-3.459 0-6.264-2.804-6.264-6.264v-6.681c0-3.459 2.804-6.264 6.264-6.264 3.459 0 6.264 2.804 6.264 6.264z" fill="#3762cc"/></g></g></g></g><g><g><g><g><path d="m147.615 153.925c-23.52 0-43.755-15.472-49.785-37.832-4.277.029-8.408-1.539-11.585-4.397-3.572-3.214-5.62-7.8-5.62-12.581 0-4.577 1.809-8.87 5.092-12.088 2.821-2.765 6.436-4.432 10.34-4.804v-2.716c0-28.183 23.128-51.111 51.558-51.111s51.558 22.928 51.558 51.111v2.716c3.904.372 7.518 2.039 10.34 4.804 3.283 3.218 5.092 7.51 5.092 12.087 0 4.782-2.048 9.367-5.619 12.58-3.177 2.859-7.342 4.436-11.586 4.399-6.031 22.361-26.266 37.832-49.785 37.832zm-48.247-41.916c.918 0 1.731.631 1.945 1.542 5.041 21.417 24.081 36.374 46.302 36.374s41.26-14.958 46.302-36.375c.231-.979 1.15-1.639 2.157-1.53 3.74.393 7.468-.808 10.236-3.299 2.729-2.456 4.294-5.957 4.294-9.606 0-3.493-1.382-6.771-3.892-9.23-2.534-2.483-5.891-3.819-9.5-3.738-.542.024-1.056-.194-1.44-.571-.384-.376-.6-.891-.6-1.429v-4.641c0-25.977-21.334-47.111-47.558-47.111s-47.558 21.134-47.558 47.111v4.641c0 .538-.216 1.052-.6 1.429-.384.376-.915.593-1.44.571-3.598-.069-6.966 1.254-9.5 3.737-2.509 2.459-3.892 5.737-3.892 9.231 0 3.649 1.566 7.151 4.296 9.607 2.767 2.491 6.498 3.692 10.235 3.298.072-.007.143-.011.213-.011z" fill="#3762cc"/></g></g></g></g><g><g><g><g><path d="m205.801 74.895c0 2.761-2.239 5-5 5h-74.833c-16.279 0-29.476-13.197-29.476-29.476v-7.892c0-16.279 13.197-29.476 29.476-29.476h45.965c18.705 0 33.868 15.163 33.868 33.868z" fill="#4671c6"/></g></g></g></g><g><g><g><g><path d="m110.77 135.641c9.068 9.997 22.213 16.285 36.845 16.285 14.633 0 27.778-6.289 36.845-16.285v-21.475h-73.69z" fill="#e0ebfc"/></g></g></g></g><g><g><g><g><path d="m110.771 116.166c-.009 0-.019 0-.028 0l-11.404-.156c-1.104-.015-1.988-.923-1.973-2.027s.916-1.98 2.027-1.973l11.404.156c1.104.015 1.988.923 1.973 2.027-.015 1.095-.908 1.973-1.999 1.973z" fill="#3762cc"/></g></g></g></g><g><g><g><g><path d="m184.459 116.166c-1.092 0-1.984-.877-2-1.973-.015-1.104.868-2.012 1.973-2.027l11.403-.156c1.073-.011 2.012.868 2.027 1.973s-.868 2.012-1.973 2.027l-11.403.156c-.008 0-.017 0-.027 0z" fill="#3762cc"/></g></g></g></g><g><g><g><g><circle cx="205.801" cy="202.449" fill="#a4c9ff" r="42.5"/></g></g></g></g><g><g><g><g><circle cx="205.801" cy="202.449" fill="#4671c6" r="33.056"/></g></g></g></g><g><g><g><g><path d="m225.201 196.062h-12.939v-13.852c0-.994-.806-1.8-1.8-1.8h-10.244c-.994 0-1.8.806-1.8 1.8v13.851h-12.318c-.939 0-1.7.761-1.7 1.7v9.675c0 .939.761 1.7 1.7 1.7h12.317v14.473c0 .994.806 1.8 1.8 1.8h10.244c.994 0 1.8-.806 1.8-1.8v-14.473h12.939c.939 0 1.7-.761 1.7-1.7v-9.675c0-.938-.761-1.699-1.699-1.699z" fill="#e0ebfc"/></g></g></g></g><g><g><g><g><path d="m49.064 125.216h-15c-1.105 0-2-.895-2-2v-15h19v15c0 1.105-.896 2-2 2z" fill="#e0ebfc"/></g></g></g></g><g><g><g><g><path d="m33.419 108.716-17.72-6.182v-80.795h51.73v80.795l-17.721 6.182z" fill="#a4c9ff"/></g></g></g></g><g><g><g><g><path d="m147.615 153.925c-14.591 0-28.561-6.175-38.326-16.941-.333-.368-.519-.847-.519-1.344v-21.475c0-1.104.896-2 2-2h73.69c1.104 0 2 .896 2 2v21.475c0 .497-.185.976-.519 1.344-9.766 10.766-23.735 16.941-38.326 16.941zm-34.845-19.066c8.981 9.584 21.636 15.066 34.845 15.066 13.208 0 25.863-5.482 34.845-15.066v-18.694h-69.69z" fill="#3762cc"/></g></g></g></g><g><g><g><g><g><g><path d="m181.716 94.638c-.115 0-.232-.01-.35-.031l-16.742-2.952c-1.088-.192-1.814-1.229-1.623-2.317s1.232-1.81 2.317-1.623l16.742 2.952c1.088.192 1.814 1.229 1.623 2.317-.171.971-1.015 1.654-1.967 1.654z" fill="#3762cc"/></g></g></g></g></g><g><g><g><g><g><path d="m113.5 94.638c-.952 0-1.796-.683-1.967-1.653-.192-1.087.535-2.125 1.623-2.317l16.742-2.952c1.084-.188 2.125.535 2.317 1.623.192 1.087-.535 2.125-1.623 2.317l-16.742 2.952c-.117.019-.234.03-.35.03z" fill="#3762cc"/></g></g></g></g></g></g><g><g><g><g><path d="m49.064 127.216h-15c-2.206 0-4-1.794-4-4v-5.08l-21.683-7.564c-1.604-.56-2.682-2.078-2.682-3.776v-90.057c0-2.757 2.243-5 5-5h61.729c2.757 0 5 2.243 5 5v90.057c0 1.699-1.078 3.217-2.683 3.776l-21.682 7.564v5.08c.001 2.206-1.793 4-3.999 4zm-38.365-111.477c-.551 0-1 .449-1 1v90.057l23.023 8.032c.803.28 1.341 1.038 1.341 1.888v6.5h15v-6.5c0-.851.538-1.608 1.341-1.888l23.023-8.032v-90.057c0-.551-.449-1-1-1z" fill="#3762cc"/></g></g></g></g><g><g><g><g><path d="m205.801 246.949c-24.538 0-44.5-19.962-44.5-44.5s19.962-44.5 44.5-44.5 44.5 19.962 44.5 44.5-19.963 44.5-44.5 44.5zm0-85c-22.332 0-40.5 18.168-40.5 40.5s18.168 40.5 40.5 40.5 40.5-18.168 40.5-40.5-18.169-40.5-40.5-40.5z" fill="#3762cc"/></g></g></g></g><g><g><g><g><path d="m200.801 81.895h-74.833c-17.356 0-31.476-14.12-31.476-31.476v-7.892c0-17.356 14.12-31.476 31.476-31.476h45.965c19.777 0 35.868 16.09 35.868 35.868v27.976c0 3.859-3.14 7-7 7zm-74.833-66.844c-15.15 0-27.476 12.326-27.476 27.476v7.892c0 15.15 12.326 27.476 27.476 27.476h74.833c1.654 0 3-1.346 3-3v-27.976c0-17.572-14.296-31.868-31.868-31.868z" fill="#3762cc"/></g></g></g></g></g></svg>