<svg id="tools" enable-background="new 0 0 300 300" height="512" viewBox="0 0 300 300" width="512" xmlns="http://www.w3.org/2000/svg"><g><circle cx="128" cy="151" fill="#e5efef" r="92"/><g><circle cx="80" cy="61" fill="#fff" r="28"/><path d="m80 93c-17.645 0-32-14.355-32-32s14.355-32 32-32 32 14.355 32 32-14.355 32-32 32zm0-56c-13.234 0-24 10.766-24 24s10.766 24 24 24 24-10.766 24-24-10.766-24-24-24z" fill="#4c241d"/></g><path d="m84 79c-2.211 0-4-1.791-4-4s1.789-4 4-4c4.41 0 8-3.588 8-8 0-2.209 1.789-4 4-4s4 1.791 4 4c0 8.822-7.176 16-16 16z" fill="#4c241d"/><path d="m80 131c-2.211 0-4-1.791-4-4v-36c0-2.209 1.789-4 4-4s4 1.791 4 4v36c0 2.209-1.789 4-4 4z" fill="#4c241d"/><g><path d="m80 267c-6.627 0-12-5.373-12-12v-132h24v132c0 6.628-5.372 12-12 12z" fill="#9dc1e4"/><path d="m80 271c-8.824 0-16-7.178-16-16v-132c0-2.209 1.789-4 4-4h24c2.211 0 4 1.791 4 4v132c0 8.822-7.176 16-16 16zm-8-144v128c0 4.412 3.59 8 8 8s8-3.588 8-8v-128z" fill="#4c241d"/></g><path d="m248 147c-2.211 0-4-1.791-4-4v-87.969l-9.59 7.24c-1.766 1.328-4.273.98-5.602-.781-1.332-1.764-.98-4.271.781-5.602l16-12.08c1.207-.916 2.84-1.066 4.191-.389 1.361.677 2.22 2.063 2.22 3.581v96c0 2.209-1.789 4-4 4z" fill="#4c241d"/><g><path d="m248 267c-6.627 0-12-5.373-12-12v-132h24v132c0 6.628-5.372 12-12 12z" fill="#ffce56"/><path d="m248 271c-8.824 0-16-7.178-16-16v-132c0-2.209 1.789-4 4-4h24c2.211 0 4 1.791 4 4v132c0 8.822-7.176 16-16 16zm-8-144v128c0 4.412 3.59 8 8 8s8-3.588 8-8v-128z" fill="#4c241d"/></g><path d="m188 195c-2.211 0-4-1.791-4-4v-52c0-8.822-7.176-16-16-16h-12c-13.234 0-24-10.766-24-24s10.766-24 24-24c2.211 0 4 1.791 4 4s-1.789 4-4 4c-8.824 0-16 7.178-16 16s7.176 16 16 16h12c13.234 0 24 10.766 24 24v52c0 2.209-1.789 4-4 4z" fill="#4c241d"/><path d="m144 195c-2.211 0-4-1.791-4-4v-52c0-13.234 10.766-24 24-24h12c8.824 0 16-7.178 16-16s-7.176-16-16-16c-2.211 0-4-1.791-4-4s1.789-4 4-4c13.234 0 24 10.766 24 24s-10.766 24-24 24h-12c-8.824 0-16 7.178-16 16v52c0 2.209-1.789 4-4 4z" fill="#4c241d"/><g><path d="m188 267c-6.627 0-12-5.373-12-12v-88h24v88c0 6.627-5.373 12-12 12z" fill="#b5a19c"/><path d="m188 271c-8.824 0-16-7.178-16-16v-88c0-2.209 1.789-4 4-4h24c2.211 0 4 1.791 4 4v88c0 8.822-7.176 16-16 16zm-8-100v84c0 4.412 3.59 8 8 8s8-3.588 8-8v-84z" fill="#4c241d"/></g><g><path d="m144 267c6.627 0 12-5.373 12-12v-88h-24v88c0 6.627 5.373 12 12 12z" fill="#b5a19c"/><path d="m144 271c-8.824 0-16-7.178-16-16v-88c0-2.209 1.789-4 4-4h24c2.211 0 4 1.791 4 4v88c0 8.822-7.176 16-16 16zm-8-100v84c0 4.412 3.59 8 8 8s8-3.588 8-8v-84z" fill="#4c241d"/></g><g><circle cx="166" cy="121" fill="#f96e43" r="10"/><path d="m166 135c-7.719 0-14-6.281-14-14s6.281-14 14-14 14 6.281 14 14-6.281 14-14 14zm0-20c-3.309 0-6 2.691-6 6s2.691 6 6 6 6-2.691 6-6-2.691-6-6-6z" fill="#4c241d"/></g></g></svg>